<?xml version="1.0" encoding="UTF-8" standalone="no"?>
<!-- Created with Inkscape (http://www.inkscape.org/) -->

<svg
   width="57.596897mm"
   height="98.503571mm"
   viewBox="0 0 57.596896 98.503568"
   version="1.1"
   id="svg5"
   inkscape:export-filename="mock_bug.png"
   inkscape:export-xdpi="96"
   inkscape:export-ydpi="96"
   inkscape:version="1.2.2 (b0a8486541, 2022-12-01)"
   sodipodi:docname="mock_bug_01.svg"
   xmlns:inkscape="http://www.inkscape.org/namespaces/inkscape"
   xmlns:sodipodi="http://sodipodi.sourceforge.net/DTD/sodipodi-0.dtd"
   xmlns="http://www.w3.org/2000/svg"
   xmlns:svg="http://www.w3.org/2000/svg">
  <sodipodi:namedview
     id="namedview7"
     pagecolor="#ffffff"
     bordercolor="#000000"
     borderopacity="0.25"
     inkscape:showpageshadow="2"
     inkscape:pageopacity="1"
     inkscape:pagecheckerboard="0"
     inkscape:deskcolor="#d1d1d1"
     inkscape:document-units="mm"
     showgrid="false"
     inkscape:zoom="0.7367354"
     inkscape:cx="175.77545"
     inkscape:cy="358.3376"
     inkscape:window-width="1920"
     inkscape:window-height="1007"
     inkscape:window-x="0"
     inkscape:window-y="0"
     inkscape:window-maximized="1"
     inkscape:current-layer="layer1" />
  <defs
     id="defs2" />
  <g
     inkscape:label="Capa 1"
     inkscape:groupmode="layer"
     id="layer1"
     transform="translate(-30.879795,-23.684592)">
    <path
       style="fill:#d4aa00;stroke:#000000;stroke-width:0.264583"
       id="path1117"
       sodipodi:type="arc"
       sodipodi:cx="59.487106"
       sodipodi:cy="78.412399"
       sodipodi:rx="27.277153"
       sodipodi:ry="27.277153"
       sodipodi:start="0"
       sodipodi:end="6.2804536"
       sodipodi:open="true"
       sodipodi:arc-type="arc"
       d="M 86.764259,78.412399 A 27.277153,27.277153 0 0 1 59.505735,105.68955 27.277153,27.277153 0 0 1 32.209979,78.449656 27.277153,27.277153 0 0 1 59.431221,51.135304 27.277153,27.277153 0 0 1 86.764158,78.337886" />
    <path
       id="path854"
       style="fill:#784421;stroke:#000000;stroke-width:0.237343"
       d="M 39.493315,105.74033 C 28.285359,91.855625 28.24652,69.297376 39.406562,55.353107 50.566597,41.408827 68.70011,41.358129 79.910432,55.239844 91.12077,69.121535 91.163433,91.679791 80.005771,105.62704 L 59.704026,51.373459 Z"
       sodipodi:nodetypes="cssccc" />
    <path
       style="fill:#784421;stroke:#000000;stroke-width:0.264583"
       id="path1399"
       sodipodi:type="arc"
       sodipodi:cx="58.618366"
       sodipodi:cy="46.161316"
       sodipodi:rx="14.536676"
       sodipodi:ry="14.536676"
       sodipodi:start="0"
       sodipodi:end="6.2804536"
       sodipodi:open="true"
       sodipodi:arc-type="arc"
       d="M 73.155043,46.161316 A 14.536676,14.536676 0 0 1 58.628294,60.697989 14.536676,14.536676 0 0 1 44.081703,46.181171 14.536676,14.536676 0 0 1 58.588584,31.62467 14.536676,14.536676 0 0 1 73.154988,46.121606" />
    <path
       style="fill:#d4aa00;stroke:#000000;stroke-width:0.339244"
       id="path1403"
       sodipodi:type="arc"
       sodipodi:cx="58.773869"
       sodipodi:cy="48.817802"
       sodipodi:rx="12.027441"
       sodipodi:ry="12.074935"
       sodipodi:start="0"
       sodipodi:end="6.2804536"
       sodipodi:open="true"
       sodipodi:arc-type="arc"
       d="M 70.80131,48.817802 A 12.027441,12.074935 0 0 1 58.782082,60.892735 12.027441,12.074935 0 0 1 46.746439,48.834295 12.027441,12.074935 0 0 1 58.749227,36.742893 12.027441,12.074935 0 0 1 70.801265,48.784817" />
    <path
       style="fill:#ffffff;stroke:#000000;stroke-width:0.264583"
       id="path1407"
       sodipodi:type="arc"
       sodipodi:cx="52.59499"
       sodipodi:cy="47.298584"
       sodipodi:rx="2.951225"
       sodipodi:ry="2.951225"
       sodipodi:start="0"
       sodipodi:end="6.2804536"
       sodipodi:open="true"
       sodipodi:arc-type="arc"
       d="m 55.546215,47.298584 a 2.951225,2.951225 0 0 1 -2.94921,2.951224 2.951225,2.951225 0 0 1 -2.953238,-2.947193 2.951225,2.951225 0 0 1 2.945176,-2.95525 2.951225,2.951225 0 0 1 2.957261,2.943157" />
    <path
       style="fill:#000000;stroke:#000000;stroke-width:0.264583"
       id="path1465"
       sodipodi:type="arc"
       sodipodi:cx="52.86478"
       sodipodi:cy="48.060577"
       sodipodi:rx="2.1802442"
       sodipodi:ry="2.1802442"
       sodipodi:start="0"
       sodipodi:end="6.2804536"
       sodipodi:open="true"
       sodipodi:arc-type="arc"
       d="m 55.045025,48.060577 a 2.1802442,2.1802442 0 0 1 -2.178756,2.180244 2.1802442,2.1802442 0 0 1 -2.181731,-2.177266 2.1802442,2.1802442 0 0 1 2.175776,-2.183217 2.1802442,2.1802442 0 0 1 2.184702,2.174284" />
    <path
       style="fill:#ffffff;stroke:#000000;stroke-width:0.264583"
       id="path1407-3"
       sodipodi:type="arc"
       sodipodi:cx="-64.712334"
       sodipodi:cy="47.280609"
       sodipodi:rx="2.951225"
       sodipodi:ry="2.951225"
       sodipodi:start="0"
       sodipodi:end="6.2804536"
       sodipodi:open="true"
       sodipodi:arc-type="arc"
       d="m -61.761109,47.280609 a 2.951225,2.951225 0 0 1 -2.949209,2.951224 2.951225,2.951225 0 0 1 -2.953238,-2.947193 2.951225,2.951225 0 0 1 2.945176,-2.95525 2.951225,2.951225 0 0 1 2.95726,2.943157"
       transform="scale(-1,1)" />
    <path
       style="fill:#000000;stroke:#000000;stroke-width:0.264583"
       id="path1465-6"
       sodipodi:type="arc"
       sodipodi:cx="-64.442543"
       sodipodi:cy="48.042603"
       sodipodi:rx="2.1802442"
       sodipodi:ry="2.1802442"
       sodipodi:start="0"
       sodipodi:end="6.2804536"
       sodipodi:open="true"
       sodipodi:arc-type="arc"
       d="m -62.262299,48.042603 a 2.1802442,2.1802442 0 0 1 -2.178755,2.180243 2.1802442,2.1802442 0 0 1 -2.181731,-2.177266 2.1802442,2.1802442 0 0 1 2.175775,-2.183217 2.1802442,2.1802442 0 0 1 2.184703,2.174284"
       transform="scale(-1,1)" />
    <path
       style="fill:#000000;stroke:#000000;stroke-width:0.264583"
       id="path1465-6-7"
       sodipodi:type="arc"
       sodipodi:cx="-77.990944"
       sodipodi:cy="25.997128"
       sodipodi:rx="2.1802442"
       sodipodi:ry="2.1802442"
       sodipodi:start="0"
       sodipodi:end="6.2804536"
       sodipodi:open="true"
       sodipodi:arc-type="arc"
       d="m -75.8107,25.997128 a 2.1802442,2.1802442 0 0 1 -2.178755,2.180243 2.1802442,2.1802442 0 0 1 -2.181731,-2.177266 2.1802442,2.1802442 0 0 1 2.175775,-2.183217 2.1802442,2.1802442 0 0 1 2.184703,2.174284"
       transform="scale(-1,1)" />
    <path
       style="fill:#000000;stroke:#000000;stroke-width:0.148766"
       id="path1465-6-7-56"
       sodipodi:type="arc"
       sodipodi:cx="-56.14542"
       sodipodi:cy="75.096184"
       sodipodi:rx="1.1722833"
       sodipodi:ry="1.2819244"
       sodipodi:start="0"
       sodipodi:end="6.2804536"
       sodipodi:open="true"
       sodipodi:arc-type="arc"
       d="m -54.973137,75.096184 a 1.1722833,1.2819244 0 0 1 -1.171482,1.281924 1.1722833,1.2819244 0 0 1 -1.173083,-1.280173 1.1722833,1.2819244 0 0 1 1.16988,-1.283673 1.1722833,1.2819244 0 0 1 1.174681,1.27842"
       transform="scale(-1,1)" />
    <path
       sodipodi:type="spiral"
       style="fill:none;fill-rule:evenodd;stroke:#000000;stroke-width:0.264583"
       id="path1611"
       sodipodi:cx="105.27455"
       sodipodi:cy="96.565491"
       sodipodi:expansion="1"
       sodipodi:revolution="1.9057657"
       sodipodi:radius="5.1704569"
       sodipodi:argument="-18.225065"
       sodipodi:t0="0.86677492"
       d="m 105.31005,92.084009 c 2.65432,-0.234536 4.92738,1.922418 5.12423,4.522352 0.003,0.04217 0.006,0.08438 0.008,0.126617"
       transform="translate(-46.639969,-39.624542)" />
    <path
       sodipodi:type="spiral"
       style="fill:none;fill-rule:evenodd;stroke:#000000;stroke-width:0.264583"
       id="path1611-2"
       sodipodi:cx="105.27455"
       sodipodi:cy="96.565491"
       sodipodi:expansion="1"
       sodipodi:revolution="1.9057657"
       sodipodi:radius="5.1704569"
       sodipodi:argument="-18.225065"
       sodipodi:t0="0.86677492"
       d="m 105.31005,92.084009 c 2.65432,-0.234536 4.92738,1.922418 5.12423,4.522352 0.003,0.04217 0.006,0.08438 0.008,0.126617"
       transform="matrix(-1,0,0,1,164.02447,-39.625612)" />
    <path
       sodipodi:type="spiral"
       style="fill:none;fill-rule:evenodd;stroke:#000000;stroke-width:0.264583"
       id="path1613"
       sodipodi:cx="98.217873"
       sodipodi:cy="109.69543"
       sodipodi:expansion="1"
       sodipodi:revolution="1.8021015"
       sodipodi:radius="12.645571"
       sodipodi:argument="-13.251657"
       sodipodi:t0="0.83113527"
       d="m 90.173634,116.4596 c -4.545625,-4.37052 -4.182467,-11.77769 0.151035,-16.1511 1.001648,-1.010869 2.179473,-1.843497 3.463091,-2.457251"
       transform="rotate(38.00549,191.1793,36.265377)" />
    <path
       style="fill:#000000;stroke:#000000;stroke-width:0.264583"
       id="path1465-6-7-5"
       sodipodi:type="arc"
       sodipodi:cx="39.265614"
       sodipodi:cy="26.139084"
       sodipodi:rx="2.1802442"
       sodipodi:ry="2.1802442"
       sodipodi:start="0"
       sodipodi:end="6.2804536"
       sodipodi:open="true"
       sodipodi:arc-type="arc"
       d="m 41.445858,26.139084 a 2.1802442,2.1802442 0 0 1 -2.178755,2.180244 2.1802442,2.1802442 0 0 1 -2.181732,-2.177266 2.1802442,2.1802442 0 0 1 2.175776,-2.183218 2.1802442,2.1802442 0 0 1 2.184703,2.174284" />
    <path
       sodipodi:type="spiral"
       style="fill:none;fill-rule:evenodd;stroke:#000000;stroke-width:0.264583"
       id="path1613-3"
       sodipodi:cx="98.217873"
       sodipodi:cy="109.69543"
       sodipodi:expansion="1"
       sodipodi:revolution="1.8021015"
       sodipodi:radius="12.645571"
       sodipodi:argument="-13.251657"
       sodipodi:t0="0.83113527"
       d="m 90.173634,116.4596 c -4.545625,-4.37052 -4.182467,-11.77769 0.151035,-16.1511 1.001648,-1.010869 2.179473,-1.843497 3.463091,-2.457251"
       transform="matrix(-0.78795176,0.61573698,0.61573698,0.78795176,54.387388,-109.88419)" />
    <path
       sodipodi:type="spiral"
       style="fill:none;fill-rule:evenodd;stroke:#000000;stroke-width:0.264583"
       id="path3663"
       sodipodi:cx="92.743729"
       sodipodi:cy="52.166698"
       sodipodi:expansion="1"
       sodipodi:revolution="2.1306407"
       sodipodi:radius="17.188086"
       sodipodi:argument="-10.281505"
       sodipodi:t0="0.8714385"
       d="M 95.516172,66.886237 C 87.019847,69.253033 78.279298,63.668721 76.042265,55.31244 75.820224,54.48302 75.661348,53.636773 75.56671,52.783389"
       transform="translate(-40.048754,8.6451594)" />
    <path
       sodipodi:type="spiral"
       style="fill:none;fill-rule:evenodd;stroke:#000000;stroke-width:0.264583"
       id="path3669"
       sodipodi:cx="102.41396"
       sodipodi:cy="60.200783"
       sodipodi:expansion="1"
       sodipodi:revolution="2.1306407"
       sodipodi:radius="3.6392796"
       sodipodi:argument="-14.318651"
       sodipodi:t0="0.8714385"
       d="m 99.614342,58.710833 c 0.733338,-1.717429 2.813078,-2.422881 4.490188,-1.686629 0.16646,0.07308 0.32735,0.158823 0.48091,0.256128"
       transform="translate(-43.915996,15.993579)" />
    <path
       style="fill:#000000;stroke:#000000;stroke-width:0.148766"
       id="path1465-6-7-56-2"
       sodipodi:type="arc"
       sodipodi:cx="63.345024"
       sodipodi:cy="75.206749"
       sodipodi:rx="1.1722833"
       sodipodi:ry="1.2819244"
       sodipodi:start="0"
       sodipodi:end="6.2804536"
       sodipodi:open="true"
       sodipodi:arc-type="arc"
       d="m 64.517307,75.206749 a 1.1722833,1.2819244 0 0 1 -1.171482,1.281924 1.1722833,1.2819244 0 0 1 -1.173083,-1.280173 1.1722833,1.2819244 0 0 1 1.16988,-1.283673 1.1722833,1.2819244 0 0 1 1.174681,1.27842" />
    <path
       sodipodi:type="spiral"
       style="fill:none;fill-rule:evenodd;stroke:#000000;stroke-width:0.264583"
       id="path3663-9"
       sodipodi:cx="92.743729"
       sodipodi:cy="52.166698"
       sodipodi:expansion="1"
       sodipodi:revolution="2.1306407"
       sodipodi:radius="17.188086"
       sodipodi:argument="-10.281505"
       sodipodi:t0="0.8714385"
       d="M 95.516172,66.886237 C 87.019847,69.253033 78.279298,63.668721 76.042265,55.31244 75.820224,54.48302 75.661348,53.636773 75.56671,52.783389"
       transform="matrix(-1,0,0,1,159.53919,8.7557219)" />
    <path
       sodipodi:type="spiral"
       style="fill:none;fill-rule:evenodd;stroke:#000000;stroke-width:0.264583"
       id="path3669-1"
       sodipodi:cx="102.41396"
       sodipodi:cy="60.200783"
       sodipodi:expansion="1"
       sodipodi:revolution="2.1306407"
       sodipodi:radius="3.6392796"
       sodipodi:argument="-14.318651"
       sodipodi:t0="0.8714385"
       d="m 99.614342,58.710833 c 0.733338,-1.717429 2.813078,-2.422881 4.490188,-1.686629 0.16646,0.07308 0.32735,0.158823 0.48091,0.256128"
       transform="matrix(-1,0,0,1,163.40643,16.104142)" />
    <path
       style="fill:#000000;stroke:#000000;stroke-width:0.161684"
       id="path1465-6-7-56-6"
       sodipodi:type="arc"
       sodipodi:cx="-55.422337"
       sodipodi:cy="94.778572"
       sodipodi:rx="1.3859478"
       sodipodi:ry="1.2807894"
       sodipodi:start="0"
       sodipodi:end="6.2804536"
       sodipodi:open="true"
       sodipodi:arc-type="arc"
       d="m -54.036389,94.778572 a 1.3859478,1.2807894 0 0 1 -1.385001,1.280789 1.3859478,1.2807894 0 0 1 -1.386893,-1.27904 1.3859478,1.2807894 0 0 1 1.383107,-1.282536 1.3859478,1.2807894 0 0 1 1.388782,1.277288"
       transform="scale(-1,1)" />
    <path
       sodipodi:type="spiral"
       style="fill:none;fill-rule:evenodd;stroke:#000000;stroke-width:0.264583"
       id="path3663-2"
       sodipodi:cx="92.743729"
       sodipodi:cy="52.166698"
       sodipodi:expansion="1"
       sodipodi:revolution="2.1306407"
       sodipodi:radius="17.188086"
       sodipodi:argument="-10.281505"
       sodipodi:t0="0.8714385"
       d="M 95.516172,66.886237 C 87.019847,69.253033 78.279298,63.668721 76.042265,55.31244 75.820224,54.48302 75.661348,53.636773 75.56671,52.783389"
       transform="matrix(1.1822636,0,0,0.99911459,-58.304525,28.38639)" />
    <path
       sodipodi:type="spiral"
       style="fill:none;fill-rule:evenodd;stroke:#000000;stroke-width:0.264583"
       id="path3669-6"
       sodipodi:cx="102.41396"
       sodipodi:cy="60.200783"
       sodipodi:expansion="1"
       sodipodi:revolution="2.1306407"
       sodipodi:radius="3.6392796"
       sodipodi:argument="-14.318651"
       sodipodi:t0="0.8714385"
       d="m 99.614342,58.710833 c 0.733338,-1.717429 2.813078,-2.422881 4.490188,-1.686629 0.16646,0.07308 0.32735,0.158823 0.48091,0.256128"
       transform="matrix(1.1822636,0,0,0.99911459,-62.876624,35.728304)" />
    <path
       style="fill:#000000;stroke:#000000;stroke-width:0.161684"
       id="path1465-6-7-56-2-1"
       sodipodi:type="arc"
       sodipodi:cx="63.93417"
       sodipodi:cy="94.889038"
       sodipodi:rx="1.3859478"
       sodipodi:ry="1.2807894"
       sodipodi:start="0"
       sodipodi:end="6.2804536"
       sodipodi:open="true"
       sodipodi:arc-type="arc"
       d="m 65.320118,94.889038 a 1.3859478,1.2807894 0 0 1 -1.385002,1.280789 1.3859478,1.2807894 0 0 1 -1.386893,-1.27904 1.3859478,1.2807894 0 0 1 1.383107,-1.282536 1.3859478,1.2807894 0 0 1 1.388782,1.277288" />
    <path
       style="fill:#000000;stroke:#000000;stroke-width:0.161684"
       id="path1465-6-7-56-2-1-9"
       sodipodi:type="arc"
       sodipodi:cx="49.328117"
       sodipodi:cy="120.56284"
       sodipodi:rx="1.3859478"
       sodipodi:ry="1.2807894"
       sodipodi:start="0"
       sodipodi:end="6.2804536"
       sodipodi:open="true"
       sodipodi:arc-type="arc"
       d="m 50.714065,120.56284 a 1.3859478,1.2807894 0 0 1 -1.385001,1.28079 1.3859478,1.2807894 0 0 1 -1.386893,-1.27904 1.3859478,1.2807894 0 0 1 1.383107,-1.28253 1.3859478,1.2807894 0 0 1 1.388782,1.27728" />
    <path
       sodipodi:type="spiral"
       style="fill:none;fill-rule:evenodd;stroke:#000000;stroke-width:0.264583"
       id="path3663-9-8"
       sodipodi:cx="92.743729"
       sodipodi:cy="52.166698"
       sodipodi:expansion="1"
       sodipodi:revolution="2.1306407"
       sodipodi:radius="17.188086"
       sodipodi:argument="-10.281505"
       sodipodi:t0="0.8714385"
       d="M 95.516172,66.886237 C 87.019847,69.253033 78.279298,63.668721 76.042265,55.31244 75.820224,54.48302 75.661348,53.636773 75.56671,52.783389"
       transform="matrix(-1.1822636,0,0,0.99911459,177.66101,28.496855)" />
    <path
       sodipodi:type="spiral"
       style="fill:none;fill-rule:evenodd;stroke:#000000;stroke-width:0.264583"
       id="path3669-1-7"
       sodipodi:cx="102.41396"
       sodipodi:cy="60.200783"
       sodipodi:expansion="1"
       sodipodi:revolution="2.1306407"
       sodipodi:radius="3.6392796"
       sodipodi:argument="-14.318651"
       sodipodi:t0="0.8714385"
       d="m 99.614342,58.710833 c 0.733338,-1.717429 2.813078,-2.422881 4.490188,-1.686629 0.16646,0.07308 0.32735,0.158823 0.48091,0.256128"
       transform="matrix(-1.1822636,0,0,0.99911459,182.23312,35.838769)" />
    <path
       style="opacity:1;fill:#aa8800;fill-rule:nonzero;stroke:#000000;stroke-width:0.264583"
       d="M 51.379257,104.56267 49.800486,121.1349"
       id="path3903" />
    <path
       style="fill:#000000;stroke:#000000;stroke-width:0.161684"
       id="path1465-6-7-56-2-1-9-2"
       sodipodi:type="arc"
       sodipodi:cx="-68.235374"
       sodipodi:cy="120.82653"
       sodipodi:rx="1.3859478"
       sodipodi:ry="1.2807894"
       sodipodi:start="0"
       sodipodi:end="6.2804536"
       sodipodi:open="true"
       sodipodi:arc-type="arc"
       d="m -66.849427,120.82653 a 1.3859478,1.2807894 0 0 1 -1.385001,1.28079 1.3859478,1.2807894 0 0 1 -1.386893,-1.27904 1.3859478,1.2807894 0 0 1 1.383107,-1.28254 1.3859478,1.2807894 0 0 1 1.388782,1.27729"
       transform="scale(-1,1)" />
    <path
       style="fill:#aa8800;fill-rule:nonzero;stroke:#000000;stroke-width:0.264583"
       d="m 66.184232,104.82636 1.578771,16.57223"
       id="path3903-0" />
  </g>
</svg>
